<svg width="210" height="30" viewBox="0 0 210 30" fill="none" xmlns="http://www.w3.org/2000/svg">
<path fill-rule="evenodd" clip-rule="evenodd" d="M9.38806 0H0L10.7872 14.9743L0 30H9.38806L20.179 14.9743L9.38806 0Z" fill="#FF6200"/>
<path d="M21.3155 7.01861H25.8224L29.2879 12.6046L32.8746 7.01861H37.1277L31.4671 15.3645L37.6224 24.5061H32.995L29.1395 18.4552L25.2034 24.5061H20.8448L27.0122 15.3414L21.3155 7.01861Z" fill="black"/>
<path d="M42.6769 9.90745L41.9856 13.8051L42.0376 13.8528C42.5203 13.3796 43.0308 13.0369 43.5737 12.8342C44.1167 12.6263 44.7357 12.528 45.4277 12.528C46.2884 12.528 47.0475 12.6829 47.7072 12.9929C48.3661 13.3036 48.9256 13.7171 49.3796 14.238C49.8337 14.7588 50.1801 15.3713 50.4203 16.0843C50.6621 16.7929 50.7825 17.5447 50.7825 18.3435C50.7825 19.2309 50.6056 20.046 50.2599 20.7986C49.915 21.5586 49.4436 22.218 48.8608 22.7716C48.2697 23.3282 47.5904 23.7499 46.8186 24.0517C46.0392 24.3549 45.2184 24.498 44.3418 24.4816C43.4977 24.4816 42.6935 24.3706 41.9261 24.1486C41.1618 23.9295 40.4825 23.5905 39.8877 23.1375C39.292 22.6762 38.8183 22.1122 38.4644 21.4349C38.1105 20.7591 37.9252 19.9708 37.9094 19.0722H41.4231C41.5037 19.856 41.8011 20.4804 42.3154 20.9409C42.8222 21.4073 43.4736 21.642 44.2658 21.642C44.7282 21.642 45.1461 21.5496 45.5121 21.3634C45.8856 21.1756 46.1996 20.9334 46.4564 20.6309C46.7094 20.3292 46.9067 19.979 47.0475 19.5811C47.1921 19.1795 47.2606 18.7689 47.2606 18.3479C47.2606 17.9106 47.1921 17.4926 47.0595 17.1036C46.9315 16.7169 46.7305 16.3757 46.4692 16.0814C46.2033 15.7863 45.8938 15.5561 45.5241 15.3973C45.1627 15.2334 44.7447 15.1582 44.2658 15.1582C43.6393 15.1582 43.128 15.2617 42.7341 15.4845C42.332 15.7073 41.9623 16.0501 41.6166 16.5269H38.4524L40.1602 7.04328H49.842V9.90819L42.6769 9.90745Z" fill="black"/>
<path d="M62.0837 7.01861C62.8066 7.01861 63.4949 7.1028 64.15 7.2861C64.7968 7.46418 65.3676 7.73465 65.8549 8.10869C66.3413 8.47528 66.7276 8.94842 67.0168 9.52512C67.3022 10.1056 67.4513 10.7903 67.4513 11.5779C67.4513 12.6873 67.1621 13.6545 66.583 14.4659C66.0032 15.2825 65.1508 15.8026 64.0099 16.0336V16.0857C64.589 16.1684 65.0672 16.3167 65.449 16.5358C65.827 16.7578 66.1403 17.0365 66.382 17.3792C66.6192 17.7294 66.7924 18.1191 66.9001 18.5729C67.0085 19.0185 67.077 19.5035 67.1132 20.0243C67.129 20.3186 67.1456 20.677 67.1614 21.1025C67.1772 21.5287 67.2088 21.9541 67.2615 22.3885C67.3052 22.8214 67.3895 23.2313 67.4987 23.609C67.6034 23.9987 67.748 24.293 67.9287 24.5084H66.0627C65.9625 24.3415 65.8857 24.1425 65.8255 23.9078C65.769 23.6731 65.7291 23.4257 65.705 23.1724C65.6809 22.9213 65.6568 22.6709 65.641 22.4243C65.6244 22.1769 65.6086 21.9705 65.5883 21.7872C65.5559 21.171 65.5077 20.5541 65.4317 19.9416C65.3548 19.3329 65.1982 18.7882 64.9572 18.3061C64.72 17.8211 64.3744 17.4396 63.9203 17.1445C63.4692 16.8457 62.8465 16.7183 62.055 16.7504H55.6859V24.5076H53.9886V7.0201L62.0837 7.01861ZM61.9549 15.3175C62.4655 15.3175 62.9557 15.2415 63.4143 15.0873C63.8766 14.9323 64.2825 14.7051 64.6282 14.4145C64.9738 14.1239 65.2479 13.7618 65.4565 13.352C65.6576 12.9392 65.7585 12.4616 65.7585 11.9206C65.7585 10.8432 65.4482 9.99528 64.8217 9.37461C64.1982 8.75394 63.2456 8.44696 61.9549 8.44696H55.6867V15.3175H61.9549Z" fill="black"/>
<path d="M82.1979 7.01861V8.44696H71.6848V14.7438H81.5307V16.1766H71.6848V23.074H82.3222V24.5061H69.995V7.01861H82.1979Z" fill="black"/>
<path d="M97.2503 7.01861V8.44696H91.0875V24.5061H89.4022V8.44696H83.2635V7.01861H97.2503Z" fill="black"/>
<path d="M103.482 7.01861L110.405 24.5061H108.604L106.449 19.0639H98.4071L96.2805 24.5061H94.4996L101.6 7.01861H103.482ZM105.882 17.6333L102.466 8.67049L98.9312 17.6333H105.882Z" fill="black"/>
<path d="M113.823 7.01186H112.133V24.5068H113.823V7.01186Z" fill="black"/>
<path d="M119.194 7.01861V23.074H129.092V24.5061H117.504V7.01861H119.194Z" fill="black"/>
<path d="M139.069 25.1684C137.685 25.1684 136.447 24.9247 135.362 24.4173C134.293 23.9189 133.388 23.2468 132.669 22.3854C131.952 21.536 131.413 20.5316 131.05 19.3946C130.684 18.2583 130.505 17.0438 130.505 15.7652C130.505 14.4598 130.703 13.243 131.09 12.0948C131.485 10.9466 132.05 9.94225 132.782 9.09582C133.518 8.23672 134.42 7.56091 135.477 7.07287C136.539 6.58334 137.746 6.33745 139.085 6.33745C140.102 6.33745 141.045 6.48201 141.912 6.76738C142.777 7.05573 143.541 7.47001 144.204 8.00126C144.861 8.53997 145.405 9.1815 145.823 9.92586C146.25 10.6747 146.534 11.5196 146.691 12.4376L146.747 12.7654H145.674L145.631 12.5322C145.492 11.7521 145.235 11.0525 144.867 10.4139C144.494 9.77982 144.034 9.24335 143.472 8.79629C142.913 8.3455 142.267 7.99977 141.528 7.75464C140.797 7.51024 139.98 7.39103 139.084 7.39103C137.881 7.39103 136.824 7.61008 135.903 8.04671C134.971 8.48781 134.189 9.08464 133.55 9.83496C132.906 10.5905 132.413 11.4727 132.078 12.4927C131.741 13.512 131.574 14.6066 131.574 15.766C131.574 16.9328 131.737 18.0303 132.059 19.0548C132.375 20.0712 132.851 20.9608 133.486 21.7096C134.113 22.454 134.906 23.0508 135.848 23.4956C136.786 23.9285 137.881 24.1536 139.149 24.1536C140.094 24.1536 140.969 23.9926 141.784 23.6707C142.612 23.3481 143.333 22.8996 143.935 22.3325C144.542 21.767 145.014 21.089 145.366 20.2977C145.71 19.5071 145.884 18.654 145.884 17.7278V17.1019H139.034V16.0536H146.957V24.7787H145.883L145.891 21.4421C145.373 22.4272 144.642 23.2393 143.71 23.8697C142.418 24.7385 140.868 25.1676 139.081 25.1676C139.08 25.1684 139.075 25.1684 139.069 25.1684Z" fill="black"/>
<path d="M148.68 24.786H148.397V6.74414H155.928C157.818 6.74638 159.242 7.10328 160.186 7.90128C161.126 8.69258 161.588 9.91604 161.629 11.5009C161.632 11.5567 161.632 11.6119 161.632 11.6678C161.632 12.8242 161.291 13.8166 160.612 14.6102C160.098 15.2137 159.421 15.6727 158.598 15.9879C158.927 16.0825 159.221 16.1987 159.482 16.3388C159.983 16.6115 160.38 16.9766 160.652 17.4341C160.917 17.8767 161.098 18.3953 161.187 18.9862C161.265 19.5591 161.306 20.191 161.306 20.9107C161.306 21.1373 161.321 21.4472 161.334 21.8131C161.35 22.1767 161.377 22.5358 161.407 22.8882C161.443 23.2422 161.481 23.5596 161.528 23.8502C161.571 24.1251 161.639 24.3002 161.676 24.3427L162.004 24.7882H160.724L160.648 24.6303C160.54 24.4112 160.47 24.1504 160.412 23.8241C160.364 23.5186 160.323 23.1833 160.301 22.8331C160.279 22.4874 160.255 22.1416 160.249 21.7855C160.241 21.4286 160.234 21.1164 160.234 20.8318C160.234 20.1276 160.184 19.5018 160.077 18.9571C159.977 18.4363 159.781 18.013 159.491 17.6688C159.199 17.3328 158.771 17.0601 158.208 16.8693C157.635 16.6808 156.848 16.5772 155.846 16.5772H149.472V24.7875H149.187L148.68 24.786ZM155.801 15.5363C156.439 15.5363 157.04 15.4559 157.625 15.2942C158.19 15.1452 158.693 14.903 159.12 14.5647C159.552 14.2324 159.892 13.8204 160.159 13.3003C160.415 12.8018 160.547 12.1938 160.547 11.4606C160.528 10.2722 160.177 9.40192 159.499 8.75964C158.839 8.14121 157.699 7.79995 156.054 7.80144L149.472 7.79995V15.5371L155.801 15.5363Z" fill="black"/>
<path d="M167.28 24.4171C166.231 23.9164 165.345 23.2362 164.636 22.3719C163.931 21.5075 163.392 20.5061 163.026 19.3616C162.665 18.2276 162.475 17.0235 162.475 15.7561C162.475 14.4865 162.665 13.2794 163.026 12.1468C163.391 11.0009 163.931 10.0009 164.636 9.13812C165.345 8.27156 166.231 7.58532 167.278 7.08462C168.339 6.5705 169.55 6.31567 170.902 6.31567C172.26 6.31567 173.471 6.5705 174.526 7.08462C175.574 7.58532 176.464 8.27231 177.173 9.13812C177.88 10.0009 178.419 11.0001 178.785 12.1446C179.148 13.2794 179.329 14.4865 179.329 15.7561C179.329 17.022 179.148 18.2246 178.785 19.3616C178.419 20.5061 177.88 21.5075 177.173 22.3719C176.465 23.2362 175.575 23.9164 174.526 24.4171C173.469 24.9238 172.26 25.1704 170.902 25.1704C169.552 25.1704 168.341 24.9238 167.28 24.4171ZM165.55 21.8108C166.175 22.5462 166.936 23.1229 167.839 23.5417C168.734 23.9529 169.751 24.1601 170.901 24.1601C172.057 24.1601 173.074 23.9537 173.972 23.5439C174.874 23.1222 175.633 22.5462 176.259 21.813C176.877 21.0776 177.367 20.1954 177.71 19.1687C178.055 18.1292 178.236 17.0056 178.252 15.7777C178.236 14.5505 178.055 13.4224 177.71 12.389C177.367 11.3615 176.877 10.4748 176.259 9.73717C175.633 9.00623 174.874 8.434 173.972 8.01227C173.074 7.59725 172.057 7.39011 170.901 7.39011C169.751 7.39011 168.734 7.59725 167.841 8.01227C166.934 8.43325 166.175 9.0025 165.55 9.73717C164.927 10.4748 164.442 11.3615 164.094 12.389C163.753 13.4202 163.573 14.5505 163.558 15.771C163.573 17.0049 163.753 18.1278 164.094 19.1672C164.442 20.1961 164.927 21.0776 165.55 21.8108Z" fill="black"/>
<path d="M194.388 6.73624V17.9835C194.388 20.3723 193.824 22.1911 192.648 23.3885C191.48 24.5851 189.783 25.17 187.627 25.17C187.623 25.17 187.618 25.17 187.616 25.17C185.452 25.1723 183.756 24.5874 182.585 23.3885C181.405 22.1911 180.845 20.3723 180.845 17.9835V6.73624H181.918V17.9835C181.921 20.0504 182.395 21.5705 183.304 22.5942C184.208 23.6053 185.619 24.1343 187.616 24.1373C189.611 24.1343 191.02 23.6053 191.925 22.5942C192.831 21.569 193.314 20.0504 193.314 17.9835V6.73624H194.388Z" fill="black"/>
<path d="M196.263 24.7867H195.978V6.75224H203.431C205.171 6.75224 206.566 7.16577 207.577 8.02412C208.585 8.88769 209.092 10.1708 209.09 11.8092C209.09 12.6117 208.938 13.3337 208.643 13.9715C208.344 14.6034 207.93 15.1376 207.398 15.5675C206.873 15.9907 206.246 16.3104 205.532 16.5213C204.817 16.7381 204.028 16.8394 203.182 16.8394H197.053V24.7874H196.769L196.263 24.7867ZM203.424 15.7754C204.089 15.7754 204.703 15.689 205.267 15.5094C205.831 15.3328 206.308 15.0758 206.719 14.7323C207.121 14.3947 207.435 13.979 207.669 13.4939C207.897 13.0126 208.014 12.4515 208.014 11.8003C208.011 10.4658 207.635 9.49346 206.9 8.82361C206.176 8.15899 205.033 7.80208 203.425 7.80208L197.052 7.80059V15.7762L203.424 15.7754Z" fill="black"/>
</svg>
